<svg id="purple" xmlns="http://www.w3.org/2000/svg" viewBox="0 0 24 24"><defs><style>.cls-1{fill:#fff;}</style></defs><g id="marginal_quotation" data-name="marginal quotation"><g id="v2"><g id="Oval"><path class="cls-1" d="M11.81,23a10.62,10.62,0,0,1-7.49-3.09A11.14,11.14,0,0,1,1,12a11,11,0,0,1,22,0,10.56,10.56,0,0,1-3,7.47A11.42,11.42,0,0,1,12,23ZM12,2A10,10,0,0,0,2,12a10.14,10.14,0,0,0,3,7.2A9.65,9.65,0,0,0,12,22a10.42,10.42,0,0,0,7.25-3.24A9.57,9.57,0,0,0,22,12,10.08,10.08,0,0,0,12,2Z"/></g></g></g><path class="cls-1" d="M8.5,18a.5.5,0,0,1-.22-.95C10,16.21,10,13.53,10,13.5V9H7v3H8.5a.5.5,0,0,1,0,1h-2a.5.5,0,0,1-.5-.5v-4A.5.5,0,0,1,6.5,8h4a.5.5,0,0,1,.5.5v5c0,.14,0,3.32-2.28,4.45A.54.54,0,0,1,8.5,18Z"/><path class="cls-1" d="M15.5,18a.5.5,0,0,1-.22-.95C17,16.21,17,13.53,17,13.5V9H14v3h1.5a.5.5,0,0,1,0,1h-2a.5.5,0,0,1-.5-.5v-4a.5.5,0,0,1,.5-.5h4a.5.5,0,0,1,.5.5v5c0,.14,0,3.32-2.28,4.45A.54.54,0,0,1,15.5,18Z"/></svg>