<svg id="purple" xmlns="http://www.w3.org/2000/svg" viewBox="0 0 24 24"><defs><style>.cls-1{fill:#fff;}</style></defs><path class="cls-1" d="M14.5,9.89h-5a.5.5,0,0,0-.5.5.5.5,0,0,0,.5.5h5a.5.5,0,0,0,.5-.5A.5.5,0,0,0,14.5,9.89Z"/><path class="cls-1" d="M14.5,11.89h-5a.5.5,0,0,0-.5.5.5.5,0,0,0,.5.5h5a.5.5,0,0,0,.5-.5A.5.5,0,0,0,14.5,11.89Z"/><path class="cls-1" d="M14.5,13.89h-5a.5.5,0,0,0-.5.5.5.5,0,0,0,.5.5h5a.5.5,0,0,0,.5-.5A.5.5,0,0,0,14.5,13.89Z"/><path class="cls-1" d="M22,10.39a2,2,0,0,0-1.93,1.5H18V7.39a.5.5,0,0,0-.5-.5H15.9l1.52-2A1.91,1.91,0,0,0,18,5a1.86,1.86,0,0,0,.52-.07A2,2,0,0,0,19.73,4a2,2,0,0,0,.2-1.52A2,2,0,0,0,16.27,2a2,2,0,0,0-.2,1.52,2,2,0,0,0,.49.86L14.64,6.89H9.36L7.44,4.38a2,2,0,0,0,.49-.86A2,2,0,0,0,7.73,2a2,2,0,0,0-3.66.48A2,2,0,0,0,4.27,4a2,2,0,0,0,1.21.93A1.86,1.86,0,0,0,6,5a1.91,1.91,0,0,0,.58-.1l1.52,2H6.5a.5.5,0,0,0-.5.5v4.5H3.93a2,2,0,1,0,0,1H6v4.5a.5.5,0,0,0,.5.5H8.12l-1.53,2a2,2,0,0,0-2.32.91,2,2,0,0,0-.2,1.51A2,2,0,0,0,6,23.78a2,2,0,0,0,1.44-3.37l1.94-2.52h5.26l1.92,2.52A2,2,0,0,0,19,23.52a2,2,0,0,0,.93-1.22,2,2,0,0,0-.2-1.51,2,2,0,0,0-2.32-.91l-1.51-2h1.6a.5.5,0,0,0,.5-.5v-4.5h2.07A2,2,0,1,0,22,10.39ZM17.13,2.5A1,1,0,0,1,19,2.74a1,1,0,0,1-.1.76,1,1,0,0,1-.61.47,1.05,1.05,0,0,1-.76-.1A1,1,0,0,1,17.13,2.5ZM5.74,4a1,1,0,0,1-.61-.47A1,1,0,0,1,5,2.74a1,1,0,0,1,.47-.61,1,1,0,1,1,1,1.74A1.05,1.05,0,0,1,5.74,4ZM2,13.39a1,1,0,1,1,1-1A1,1,0,0,1,2,13.39Zm4.87,8.9a1,1,0,0,1-1.37.36A1,1,0,0,1,5,22a1,1,0,0,1,1-1.25,1,1,0,0,1,.87,1.5Zm12-1A1,1,0,0,1,19,22a1,1,0,0,1-.47.61,1,1,0,1,1-.5-1.86A1,1,0,0,1,18.87,21.29ZM17,16.89H7v-9H17Zm5-3.5a1,1,0,1,1,1-1A1,1,0,0,1,22,13.39Z"/></svg>