<?xml version="1.0" encoding="utf-8"?>
<!-- Generator: Adobe Illustrator 23.0.3, SVG Export Plug-In . SVG Version: 6.00 Build 0)  -->
<svg version="1.1" id="Layer_1" xmlns="http://www.w3.org/2000/svg" xmlns:xlink="http://www.w3.org/1999/xlink" x="0px" y="0px"
	 viewBox="0 0 80 80" style="enable-background:new 0 0 80 80;" xml:space="preserve">
<style type="text/css">
	.st0{opacity:0.75;}
	.st1{fill:#FFFFFF;}
</style>
<title>overlay_video</title>
<desc>Created with Sketch.</desc>
<g class="st0">
	<path class="st1" d="M40,73C21.8,73,7,58.2,7,40S21.8,7,40,7s33,14.8,33,33S58.2,73,40,73z M40,10c-16.5,0-30,13.5-30,30
		s13.5,30,30,30s30-13.5,30-30S56.5,10,40,10z"/>
</g>
<g class="st0">
	<path class="st1" d="M29.5,55c-0.3,0-0.5-0.1-0.8-0.2C28.3,54.5,28,54,28,53.5v-27c0-0.5,0.3-1,0.7-1.3c0.5-0.3,1-0.3,1.5-0.1
		l27,13.6c0.5,0.3,0.8,0.8,0.8,1.3c0,0.6-0.3,1.1-0.8,1.3l-27,13.4C30,54.9,29.7,55,29.5,55z M31,28.9v22.1l22.1-11L31,28.9z"/>
</g>
</svg>
