<svg id="purple" xmlns="http://www.w3.org/2000/svg" viewBox="0 0 16 16"><defs><style>.cls-1{fill:#fff;}</style></defs><path class="cls-1" d="M11,13a.5.5,0,0,0,.5-.5A.5.5,0,0,0,11,12H2a2,2,0,0,0-2,2,2,2,0,0,0,2,2h9a.5.5,0,0,0,0-1h-.5V13ZM9.5,15H2a1,1,0,0,1-1-1,1,1,0,0,1,1-1H9.5Z"/><path class="cls-1" d="M15.5,0H3.5A.5.5,0,0,0,3,.5v5a.5.5,0,0,0,1,0V1H6V5.5a.5.5,0,0,0,1,0V1h8V15H13.06a.5.5,0,0,0,0,1H15.5a.5.5,0,0,0,.5-.5V.5A.5.5,0,0,0,15.5,0Z"/><path class="cls-1" d="M13,4a.5.5,0,0,0,0-1H9A.5.5,0,0,0,9,4Z"/><path class="cls-1" d="M2,11H9a.5.5,0,0,0,0-1H8.5V8H9A.5.5,0,0,0,9,7H2a2,2,0,0,0,0,4ZM2,8H7.5v2H2A1,1,0,0,1,2,8Z"/></svg>