<svg id="purple" xmlns="http://www.w3.org/2000/svg" viewBox="0 0 24 24"><defs><style>.cls-1{fill:#fff;}</style></defs><path class="cls-1" d="M13.25,20a.5.5,0,0,0,0-1h-9a2,2,0,0,0,0,4h9a.5.5,0,0,0,0-1h-.5V20Zm-1.5,2H4.25a1,1,0,0,1,0-2h7.5Z"/><path class="cls-1" d="M13.25,15a.5.5,0,0,0,0-1h-9a2,2,0,0,0,0,4h9a.5.5,0,0,0,0-1h-.5V15Zm-1.5,2H4.25a1,1,0,0,1,0-2h7.5Z"/><path class="cls-1" d="M21.25,1h-15a.5.5,0,0,0-.5.5v6a.5.5,0,0,0,1,0V2h3V7.5a.5.5,0,0,0,1,0V2h10V22H15.81a.5.5,0,0,0,0,1h5.44a.5.5,0,0,0,.5-.5V1.5A.5.5,0,0,0,21.25,1Z"/><path class="cls-1" d="M18.25,7a.5.5,0,0,0,0-1h-5a.5.5,0,0,0,0,1Z"/><path class="cls-1" d="M4.25,13h7a.5.5,0,0,0,0-1h-.5V10h.5a.5.5,0,0,0,0-1h-7a2,2,0,0,0,0,4Zm0-3h5.5v2H4.25a1,1,0,0,1,0-2Z"/></svg>