<?xml version="1.0" encoding="UTF-8" standalone="no"?>
<svg
   id="Layer_1"
   data-name="Layer 1"
   viewBox="0 0 48 48"
   version="1.1"
   sodipodi:docname="com.maxrdz.JWLibraryGTK.svg"
   inkscape:version="1.3.2 (091e20ef0f, 2023-11-25, custom)"
   xmlns:inkscape="http://www.inkscape.org/namespaces/inkscape"
   xmlns:sodipodi="http://sodipodi.sourceforge.net/DTD/sodipodi-0.dtd"
   xmlns="http://www.w3.org/2000/svg"
   xmlns:svg="http://www.w3.org/2000/svg">
  <sodipodi:namedview
     id="namedview1"
     pagecolor="#ffffff"
     bordercolor="#000000"
     borderopacity="0.25"
     inkscape:showpageshadow="2"
     inkscape:pageopacity="0.0"
     inkscape:pagecheckerboard="0"
     inkscape:deskcolor="#d1d1d1"
     inkscape:zoom="11.313709"
     inkscape:cx="15.335378"
     inkscape:cy="28.372658"
     inkscape:window-width="1920"
     inkscape:window-height="1012"
     inkscape:window-x="0"
     inkscape:window-y="38"
     inkscape:window-maximized="1"
     inkscape:current-layer="Layer_1" />
  <defs
     id="defs1">
    <inkscape:path-effect
       effect="fillet_chamfer"
       id="path-effect1"
       is_visible="true"
       lpeversion="1"
       nodesatellites_param="F,0,0,1,0,0,0,1 @ F,0,0,1,0,0,0,1 @ F,0,0,1,0,0,0,1 @ F,0,0,1,0,0,0,1"
       radius="0"
       unit="px"
       method="auto"
       mode="F"
       chamfer_steps="1"
       flexible="false"
       use_knot_distance="true"
       apply_no_radius="true"
       apply_with_radius="true"
       only_selected="false"
       hide_knots="false" />
    <style
       id="style1">.cls-1{fill:#5b3c88;}.cls-2{fill:#fff;}</style>
  </defs>
  <title
     id="title1">jwlibrary-trademark-color</title>
  <rect
     style="fill:#ffffff;stroke:none;stroke-width:2.14299;stroke-linecap:round;stroke-linejoin:round;fill-opacity:1"
     id="rect2"
     width="35.660007"
     height="37.111919"
     x="6.1699963"
     y="5.4440403"
     inkscape:label="text_foreground" />
  <path
     id="rect1"
     style="stroke-width:1.26326"
     class="cls-1"
     d="M 6.7324219 0 C 3.0029167 0 0 3.0029167 0 6.7324219 L 0 41.271484 C 0 45.00099 3.0029167 48.003906 6.7324219 48.003906 L 41.271484 48.003906 C 45.00099 48.003906 48.003906 45.00099 48.003906 41.271484 L 48.003906 6.7324219 C 48.003906 3.0029167 45.00099 0 41.271484 0 L 6.7324219 0 z M 20.212891 10.623047 L 22.511719 10.623047 L 25.164062 23.181641 L 28.828125 11.255859 L 30.621094 11.255859 L 34.107422 23.181641 C 34.259013 22.562644 36.886719 10.623047 36.886719 10.623047 L 39.085938 10.623047 L 35.09375 27.146484 L 33.248047 27.146484 L 29.724609 14.804688 L 25.833984 27.146484 L 24.001953 27.146484 L 20.212891 10.623047 z M 16.03125 10.724609 L 18.166016 10.724609 L 18.166016 22.09375 A 6.2026065 6.2026065 0 0 1 17.066406 25.884766 A 4.042432 4.042432 0 0 1 13.630859 27.3125 A 5.8994241 5.8994241 0 0 1 11.179688 26.869141 A 8.7038613 8.7038613 0 0 1 9.3476562 25.769531 L 10.257812 24.191406 A 8.0595988 8.0595988 0 0 0 11.810547 25.164062 A 4.0171668 4.0171668 0 0 0 13.492188 25.53125 A 2.1980724 2.1980724 0 0 0 15.386719 24.621094 A 4.105595 4.105595 0 0 0 16.03125 22.183594 L 16.03125 10.724609 z M 27.171875 31.443359 L 27.917969 31.443359 L 30.115234 37.46875 L 29.294922 37.46875 L 28.689453 35.6875 L 26.402344 35.6875 L 25.769531 37.46875 L 24.974609 37.46875 L 27.171875 31.443359 z M 8.96875 31.455078 L 9.7519531 31.455078 L 9.7519531 36.773438 L 12.480469 36.773438 L 12.480469 37.46875 L 8.96875 37.46875 L 8.96875 31.455078 z M 13.251953 31.455078 L 14.035156 31.455078 L 14.035156 37.46875 L 13.251953 37.46875 L 13.251953 31.455078 z M 15.222656 31.455078 L 17.105469 31.455078 A 2.8044372 2.8044372 0 0 1 17.849609 31.542969 A 1.7432988 1.7432988 0 0 1 18.443359 31.833984 A 1.4274838 1.4274838 0 0 1 18.847656 32.339844 A 1.5411772 1.5411772 0 0 1 19 33.046875 A 1.4148512 1.4148512 0 0 1 18.923828 33.527344 A 1.0358732 1.0358732 0 0 1 18.746094 33.880859 A 0.88428199 0.88428199 0 0 1 18.482422 34.146484 A 1.6169728 1.6169728 0 0 1 18.166016 34.335938 A 1.705401 1.705401 0 0 1 18.960938 34.865234 A 1.4780142 1.4780142 0 0 1 19.289062 35.851562 A 1.515912 1.515912 0 0 1 18.695312 37.039062 A 1.9327878 1.9327878 0 0 1 18.027344 37.355469 A 3.031824 3.031824 0 0 1 17.154297 37.46875 L 15.222656 37.46875 L 15.222656 31.455078 z M 20.136719 31.455078 L 22.132812 31.455078 A 3.1707825 3.1707825 0 0 1 22.916016 31.556641 A 2.0717464 2.0717464 0 0 1 23.585938 31.884766 A 1.515912 1.515912 0 0 1 24.039062 32.441406 A 1.7180336 1.7180336 0 0 1 24.216797 33.236328 A 1.705401 1.705401 0 0 1 24.103516 33.867188 A 1.5538098 1.5538098 0 0 1 23.800781 34.347656 A 1.4780142 1.4780142 0 0 1 23.357422 34.689453 A 2.0085834 2.0085834 0 0 1 22.814453 34.890625 L 24.457031 37.417969 L 23.521484 37.417969 L 21.980469 35.017578 L 20.90625 35.017578 L 20.90625 37.46875 L 20.136719 37.46875 L 20.136719 31.455078 z M 30.708984 31.455078 L 32.705078 31.455078 A 3.2465782 3.2465782 0 0 1 33.488281 31.556641 A 1.89489 1.89489 0 0 1 34.146484 31.884766 A 1.4401164 1.4401164 0 0 1 34.613281 32.441406 A 1.7180336 1.7180336 0 0 1 34.777344 33.236328 A 2.0085834 2.0085834 0 0 1 34.675781 33.867188 A 1.5538098 1.5538098 0 0 1 34.373047 34.347656 A 1.6548706 1.6548706 0 0 1 33.931641 34.689453 A 2.1728072 2.1728072 0 0 1 33.388672 34.890625 L 35.029297 37.417969 L 34.107422 37.417969 L 32.554688 34.966797 L 31.492188 34.966797 L 31.492188 37.417969 L 30.722656 37.417969 L 30.708984 31.455078 z M 35.005859 31.455078 L 35.914062 31.455078 L 37.53125 34.234375 L 39.160156 31.455078 L 40.044922 31.455078 L 37.898438 35.029297 L 37.898438 37.46875 L 37.115234 37.46875 L 37.126953 35.042969 L 35.005859 31.455078 z M 16.005859 32.136719 L 16.005859 34.107422 L 17.029297 34.107422 A 1.3390556 1.3390556 0 0 0 17.888672 33.855469 A 0.88428199 0.88428199 0 0 0 18.203125 33.072266 A 0.90954719 0.90954719 0 0 0 17.925781 32.390625 A 1.26326 1.26326 0 0 0 17.080078 32.136719 L 16.005859 32.136719 z M 20.90625 32.150391 L 20.90625 34.322266 L 22.019531 34.322266 A 1.6043402 1.6043402 0 0 0 23.029297 34.044922 A 0.9221798 0.9221798 0 0 0 23.396484 33.261719 A 1.010608 1.010608 0 0 0 23.029297 32.441406 A 1.4780142 1.4780142 0 0 0 22.09375 32.150391 L 20.90625 32.150391 z M 31.480469 32.150391 L 31.480469 34.322266 L 32.591797 34.322266 A 1.6043402 1.6043402 0 0 0 33.603516 34.044922 A 0.9221798 0.9221798 0 0 0 33.96875 33.261719 A 1.010608 1.010608 0 0 0 33.603516 32.441406 A 1.4906468 1.4906468 0 0 0 32.654297 32.150391 L 31.480469 32.150391 z M 27.550781 32.478516 L 26.679688 35.005859 L 28.449219 35.005859 L 27.550781 32.478516 z M 16.005859 34.740234 L 16.005859 36.785156 L 17.179688 36.785156 A 1.5538098 1.5538098 0 0 0 18.140625 36.507812 A 0.9221798 0.9221798 0 0 0 18.494141 35.738281 A 0.8969146 0.8969146 0 0 0 18.140625 35.005859 A 1.7180336 1.7180336 0 0 0 17.105469 34.740234 L 16.005859 34.740234 z "
     inkscape:label="jw_library" />
  <path
     id="Combined-Shape"
     class="cls-1"
     d="m 51.576399,33.303137 a 4,4 0 0 1 1.16,-2.84 4.09,4.09 0 0 1 1.26,-0.86 4,4 0 0 1 3.1,0 4.13,4.13 0 0 1 1.27,0.86 4,4 0 0 1 0.85,1.28 3.85,3.85 0 0 1 0.36,1.56 3.92,3.92 0 0 1 -0.32,1.56 4.06,4.06 0 0 1 -0.85,1.26 4.13,4.13 0 0 1 -1.27,0.86 4,4 0 0 1 -3.1,0 4.09,4.09 0 0 1 -1.26,-0.86 3.94,3.94 0 0 1 -1.2,-2.82 z m 0.56,0 a 3.29,3.29 0 0 0 0.27,1.33 3.56,3.56 0 0 0 0.74,1.09 3.52,3.52 0 0 0 1.08,0.74 3.25,3.25 0 0 0 1.32,0.27 3.29,3.29 0 0 0 1.33,-0.27 3.45,3.45 0 0 0 1.09,-0.74 3.37,3.37 0 0 0 0.73,-1.09 3.47,3.47 0 0 0 -0.73,-3.77 3.45,3.45 0 0 0 -1.09,-0.74 3.29,3.29 0 0 0 -1.3,-0.26 3.25,3.25 0 0 0 -1.32,0.27 3.51,3.51 0 0 0 -1.82,1.84 3.31,3.31 0 0 0 -0.26,1.33 z m 1.9,-2.07 h 1.54 a 2.35,2.35 0 0 1 0.6,0.08 1.37,1.37 0 0 1 0.5,0.24 1.16,1.16 0 0 1 0.36,0.4 1.31,1.31 0 0 1 0.13,0.58 1.17,1.17 0 0 1 -0.25,0.79 1.41,1.41 0 0 1 -0.6,0.4 l 1.36,1.66 h -1 l -1.2,-1.53 h -0.62 v 1.53 h -0.78 z m 1.54,1.87 a 1.06,1.06 0 0 0 0.58,-0.14 0.45,0.45 0 0 0 0.21,-0.4 0.46,0.46 0 0 0 -0.21,-0.41 1,1 0 0 0 -0.55,-0.14 h -0.67 v 1.09 z"
     inkscape:label="registered_trademark_symbol" />
</svg>
