<?xml version="1.0" encoding="UTF-8" standalone="no"?>
<svg
   id="Layer_1"
   data-name="Layer 1"
   viewBox="0 0 48 48"
   version="1.1"
   sodipodi:docname="com.maxrdz.JWLibraryGTK-symbolic.svg"
   inkscape:version="1.3.2 (091e20ef0f, 2023-11-25, custom)"
   xmlns:inkscape="http://www.inkscape.org/namespaces/inkscape"
   xmlns:sodipodi="http://sodipodi.sourceforge.net/DTD/sodipodi-0.dtd"
   xmlns="http://www.w3.org/2000/svg"
   xmlns:svg="http://www.w3.org/2000/svg">
  <sodipodi:namedview
     id="namedview1"
     pagecolor="#ffffff"
     bordercolor="#000000"
     borderopacity="0.25"
     inkscape:showpageshadow="2"
     inkscape:pageopacity="0.0"
     inkscape:pagecheckerboard="0"
     inkscape:deskcolor="#d1d1d1"
     inkscape:zoom="11.313709"
     inkscape:cx="15.335378"
     inkscape:cy="21.301591"
     inkscape:window-width="1920"
     inkscape:window-height="1012"
     inkscape:window-x="0"
     inkscape:window-y="38"
     inkscape:window-maximized="1"
     inkscape:current-layer="Layer_1" />
  <defs
     id="defs1">
    <inkscape:path-effect
       effect="fillet_chamfer"
       id="path-effect1"
       is_visible="true"
       lpeversion="1"
       nodesatellites_param="F,0,0,1,0,0,0,1 @ F,0,0,1,0,0,0,1 @ F,0,0,1,0,0,0,1 @ F,0,0,1,0,0,0,1"
       radius="0"
       unit="px"
       method="auto"
       mode="F"
       chamfer_steps="1"
       flexible="false"
       use_knot_distance="true"
       apply_no_radius="true"
       apply_with_radius="true"
       only_selected="false"
       hide_knots="false" />
    <style
       id="style1">.cls-1{fill:#5b3c88;}.cls-2{fill:#fff;}</style>
  </defs>
  <title
     id="title1">jwlibrary-trademark-color</title>
  <path
     id="rect1"
     style="fill:#000000;fill-opacity:1;stroke-width:1.00962"
     class="cls-1"
     d="m 10.196289,4.8173823 c -2.9807014,0 -5.3789062,2.4001579 -5.3789062,5.3808597 v 27.60547 c 0,2.980701 2.3982048,5.378906 5.3789062,5.378906 h 27.605469 c 2.980701,0 5.380859,-2.398205 5.380859,-5.378906 v -27.60547 c 0,-2.9807018 -2.400158,-5.3808597 -5.380859,-5.3808597 z m 10.773438,8.4902347 h 1.83789 l 2.121094,10.03711 2.927735,-9.531251 h 1.433593 l 2.78711,9.531251 c 0.121155,-0.494715 2.220703,-10.03711 2.220703,-10.03711 h 1.755859 l -3.189453,13.207032 h -1.474609 l -2.816407,-9.865234 -3.109375,9.865234 h -1.464843 z m -3.341797,0.08203 h 1.707031 v 9.085938 a 4.9572576,4.9572576 0 0 1 -0.878906,3.029297 3.2307993,3.2307993 0 0 1 -2.746094,1.140625 4.7149477,4.7149477 0 0 1 -1.958984,-0.353515 6.9563147,6.9563147 0 0 1 -1.462891,-0.878907 l 0.726563,-1.261718 a 6.4414061,6.4414061 0 0 0 1.242187,0.777344 3.2106068,3.2106068 0 0 0 1.341797,0.292968 1.7567471,1.7567471 0 0 0 1.515625,-0.726562 3.2812805,3.2812805 0 0 0 0.513672,-1.949219 z m 8.90625,16.556642 h 0.595703 l 1.755859,4.816406 h -0.65625 l -0.484375,-1.423828 h -1.828125 l -0.503906,1.423828 h -0.636719 z m -14.548828,0.0098 h 0.625 v 4.251953 h 2.18164 v 0.554688 h -2.80664 z m 3.421875,0 h 0.626953 v 4.806641 h -0.626953 z m 1.574219,0 h 1.505859 a 2.241367,2.241367 0 0 1 0.595703,0.07227 1.3932822,1.3932822 0 0 1 0.474609,0.232422 1.140876,1.140876 0 0 1 0.322266,0.402343 1.2317422,1.2317422 0 0 1 0.121094,0.566407 1.1307798,1.1307798 0 0 1 -0.06055,0.382812 0.82789232,0.82789232 0 0 1 -0.140625,0.283203 0.70673734,0.70673734 0 0 1 -0.212891,0.212891 1.2923197,1.2923197 0 0 1 -0.251953,0.150391 1.3629935,1.3629935 0 0 1 0.636719,0.423828 1.181261,1.181261 0 0 1 0.261719,0.787109 1.2115497,1.2115497 0 0 1 -0.47461,0.949219 1.5447259,1.5447259 0 0 1 -0.535156,0.253906 2.4230995,2.4230995 0 0 1 -0.697266,0.08984 h -1.544921 z m 3.927734,0 h 1.595703 a 2.5341581,2.5341581 0 0 1 0.626953,0.08203 1.6557846,1.6557846 0 0 1 0.535156,0.261719 1.2115497,1.2115497 0 0 1 0.363282,0.445313 1.3730897,1.3730897 0 0 1 0.140625,0.634765 1.3629935,1.3629935 0 0 1 -0.0918,0.50586 1.2418385,1.2418385 0 0 1 -0.242188,0.382812 1.181261,1.181261 0 0 1 -0.351562,0.273438 1.6053034,1.6053034 0 0 1 -0.435547,0.162109 l 1.3125,2.017578 h -0.746094 l -1.232422,-1.917968 h -0.857422 v 1.958984 h -0.617187 z m 8.451172,0 h 1.595703 a 2.5947357,2.5947357 0 0 1 0.625,0.08203 1.5144372,1.5144372 0 0 1 0.525391,0.261719 1.1509723,1.1509723 0 0 1 0.373046,0.445313 1.3730897,1.3730897 0 0 1 0.132813,0.634765 1.6053034,1.6053034 0 0 1 -0.08203,0.50586 1.2418385,1.2418385 0 0 1 -0.242188,0.382812 1.3226085,1.3226085 0 0 1 -0.353516,0.273438 1.7365546,1.7365546 0 0 1 -0.433593,0.162109 l 1.3125,2.017578 H 32.07715 l -1.242188,-1.957031 h -0.847656 v 1.957031 h -0.617188 z m 3.433594,0 h 0.726562 l 1.291016,2.222657 1.302734,-2.222657 h 0.707031 l -1.716797,2.857422 v 1.949219 h -0.625 l 0.0098,-1.9375 z m -15.185547,0.546875 v 1.574219 h 0.818359 a 1.0702023,1.0702023 0 0 0 0.685547,-0.201172 0.70673734,0.70673734 0 0 0 0.251953,-0.626953 0.72692984,0.72692984 0 0 0 -0.220703,-0.544922 1.0096248,1.0096248 0 0 0 -0.677735,-0.201172 z m 3.917968,0.0098 v 1.736328 h 0.888672 a 1.2822235,1.2822235 0 0 0 0.806641,-0.222656 0.73702609,0.73702609 0 0 0 0.292969,-0.625 0.80769983,0.80769983 0 0 0 -0.292969,-0.65625 1.181261,1.181261 0 0 0 -0.746094,-0.232422 z m 8.449219,0 v 1.736328 h 0.888672 a 1.2822235,1.2822235 0 0 0 0.808594,-0.222656 0.73702609,0.73702609 0 0 0 0.292968,-0.625 0.80769983,0.80769983 0 0 0 -0.292968,-0.65625 1.1913572,1.1913572 0 0 0 -0.757813,-0.232422 z m -3.138672,0.261719 -0.697265,2.019531 h 1.414062 z m -9.228515,1.808593 v 1.634766 h 0.939453 a 1.2418385,1.2418385 0 0 0 0.767578,-0.222656 0.73702609,0.73702609 0 0 0 0.28125,-0.615235 0.7168336,0.7168336 0 0 0 -0.28125,-0.585937 1.3730897,1.3730897 0 0 0 -0.828125,-0.210938 z"
     inkscape:label="jw_library" />
</svg>
